Coordinates
version=1
nRows=4
nColumns=107
inDegrees=yes

Units are S.I. units (second, meters, Newtons, ...)
If the header above contains a line with 'inDegrees', this indicates whether rotational values are in degrees (yes) or radians (no).

endheader
time	sternoclavicular_r2	sternoclavicular_r3	unrotscap_r3	unrotscap_r2	acromioclavicular_r2	acromioclavicular_r3	acromioclavicular_r1	unrothum_r1	unrothum_r3	unrothum_r2	elv_angle	shoulder_elv	shoulder1_r2	shoulder_rot	elbow_flexion	pro_sup	deviation	flexion	proximal_distal_r1	proximal_distal_r3	cmc_flexion	cmc_abduction	mp_flexion	ip_flexion	mcp2_flexion	mcp2_abduction	pm2_flexion	md2_flexion	mcp3_flexion	mcp3_abduction	pm3_flexion	md3_flexion	mcp4_flexion	mcp4_abduction	pm4_flexion	md4_flexion	mcp5_flexion	mcp5_abduction	pm5_flexion	md5_flexion	bicpt_tx	bicpt_ty	bicpt_tz	bicpt2_tx	bicpt2_ty	bicpt2_tz	ptpt_tx	ptpt_ty	ptpt_tz	FCUpt_tx	FCUpt_ty	FCUpt_tz	EDCpt_tx	EDCpt_ty	EDCpt_tz	APLpt_tx	APLpt_ty	APLpt_tz	FPLpt_tx	FPLpt_ty	FPLpt_tz	FPLpt2_tx	FPLpt2_ty	FPLpt2_tz	PEC1pt2_tx	PEC1pt2_ty	PEC1pt2_tz	PEC1pt3_tx	PEC1pt3_ty	PEC1pt3_tz	PEC2pt2_tx	PEC2pt2_ty	PEC2pt2_tz	PEC2pt3_tx	PEC2pt3_ty	PEC2pt3_tz	PEC3pt2_tx	PEC3pt2_ty	PEC3pt2_tz	PEC3pt3_tx	PEC3pt3_ty	PEC3pt3_tz	DELT2pt2a_tx	DELT2pt2a_ty	DELT2pt2a_tz	DELT2pt2_tx	DELT2pt2_ty	DELT2pt2_tz	LAT1pt2_tx	LAT1pt2_ty	LAT1pt2_tz	LAT1pt3_tx	LAT1pt3_ty	LAT1pt3_tz	LAT2pt2_tx	LAT2pt2_ty	LAT2pt2_tz	LAT2pt3_tx	LAT2pt3_ty	LAT2pt3_tz	LAT3pt2_tx	LAT3pt2_ty	LAT3pt2_tz	LAT3pt3_tx	LAT3pt3_ty	LAT3pt3_tz
      0.00000000	     -0.32807445	      0.13895685	     -0.13895685	      0.32807445	     -0.06642840	      0.53685099	      0.24131082	     -0.24131082	     -0.53685099	      0.06642840	     97.35831780	     77.67454303	     -1.69922320	    -16.37717932	     28.84884626	     35.77807094	      0.19053189	     -1.06254890	      0.22886500	     -0.53127445	      9.77195449	     -0.05262553	    -30.25063004	    -31.86644175	     65.39207813	     13.79429731	     84.94751990	     92.73262178	     76.31183161	      5.49963023	     83.69040222	     60.72938979	     84.48889471	    -12.23252740	     88.40935602	     44.94705543	     96.36023205	    -14.15547231	     77.11106836	      5.71020424	      0.00085423	     -0.03090652	     -0.00483259	      0.01654613	     -0.01803693	     -0.00790823	      0.00490640	     -0.06660939	     -0.00293212	      0.00735793	     -0.18358036	     -0.00034974	     -0.00429336	      0.00121125	      0.00017190	      0.00014164	      0.00005666	      0.00028329	      0.00018131	      0.00054392	      0.00030595	      0.00003298	     -0.00019125	     -0.00022950	      0.00254600	      0.00893258	      0.00621397	     -0.00832844	      0.02010909	     -0.01907343	      0.00254600	      0.00893258	      0.00621397	      0.00056098	      0.01864191	     -0.00979563	      0.00400459	      0.00496729	      0.01610446	      0.00000000	      0.00807104	      0.00000000	     -0.00729278	     -0.03370215	     -0.00665653	      0.01159794	     -0.00032337	     -0.00214708	     -0.00090620	      0.01518970	     -0.00621397	      0.00250285	      0.02192150	     -0.01812408	     -0.00608451	      0.01316153	     -0.00556668	     -0.01268685	      0.02779025	     -0.03111300	     -0.02382021	      0.01471502	     -0.00746539	     -0.01579384	      0.03210550	     -0.03888046
      0.03333333	     -0.32468222	      0.13752006	     -0.13752006	      0.32468222	     -0.06574154	      0.53130003	      0.23881571	     -0.23881571	     -0.53130003	      0.06574154	     97.84878437	     76.87140049	     -1.70778346	    -19.96509314	     29.42650319	     39.96212679	      0.19843763	     -1.00141848	      0.23707719	     -0.50070924	      9.54780060	     -0.59776275	    -28.74274847	    -32.70267849	     65.28772891	     13.82548757	     84.87507002	     95.40269195	     75.79388364	      5.70425507	     84.21106849	     60.50439357	     84.16614708	    -12.10178212	     88.12456721	     44.89815284	     95.57367310	    -14.15611770	     77.05182767	      5.68351219	      0.00087334	     -0.03097273	     -0.00484326	      0.01657434	     -0.01819385	     -0.00747408	      0.00459725	     -0.06680930	     -0.00326916	      0.00777642	     -0.18349585	     -0.00038615	     -0.00479544	      0.00137870	      0.00014669	      0.00018478	      0.00007391	      0.00036956	      0.00023652	      0.00070956	      0.00039913	      0.00003326	     -0.00018815	     -0.00022578	      0.00251968	      0.00884022	      0.00614972	     -0.00824233	      0.01990117	     -0.01887622	      0.00251968	      0.00884022	      0.00614972	      0.00055518	      0.01844915	     -0.00969435	      0.00397452	      0.00491593	      0.01603224	      0.00000000	      0.00790380	      0.00000000	     -0.00721738	     -0.03335367	     -0.00651773	      0.01375611	     -0.00043086	     -0.00328607	     -0.00089683	      0.01503264	     -0.00614972	      0.00247697	      0.02169484	     -0.01793668	     -0.00602160	      0.01302544	     -0.00550912	     -0.01255567	      0.02750290	     -0.03079129	     -0.02357392	      0.01456287	     -0.00738820	     -0.01563053	      0.03177354	     -0.03847844
      0.06666667	     -0.32469299	      0.13752463	     -0.13752463	      0.32469299	     -0.06574373	      0.53131767	      0.23882363	     -0.23882363	     -0.53131767	      0.06574373	     97.85580396	     76.87395181	     -1.70790597	    -19.96463036	     29.43082143	     39.96004159	      0.19842924	     -1.00142888	      0.23706838	     -0.50071444	      9.54913359	     -0.59777341	    -28.74249440	    -32.70246575	     65.28677389	     13.82546970	     84.87508377	     95.40221393	     75.79339492	      5.70459986	     84.21070757	     60.50445059	     84.16628725	    -12.10207530	     88.12469469	     44.89815137	     95.57303002	    -14.15595557	     77.05142734	      5.68349989	      0.00087348	     -0.03097322	     -0.00484334	      0.01657433	     -0.01819503	     -0.00747429	      0.00459740	     -0.06680920	     -0.00326900	      0.00777621	     -0.18349589	     -0.00038613	     -0.00479519	      0.00137862	      0.00014671	      0.00018476	      0.00007390	      0.00036951	      0.00023649	      0.00070946	      0.00039907	      0.00003325	     -0.00018807	     -0.00022568	      0.00251976	      0.00884051	      0.00614992	     -0.00824260	      0.01990183	     -0.01887684	      0.00251976	      0.00884051	      0.00614992	      0.00055520	      0.01844976	     -0.00969467	      0.00397461	      0.00491610	      0.01603247	      0.00000000	      0.00790432	      0.00000000	     -0.00721762	     -0.03335478	     -0.00651817	      0.01375584	     -0.00043085	     -0.00328592	     -0.00089686	      0.01503314	     -0.00614992	      0.00247705	      0.02169556	     -0.01793727	     -0.00602180	      0.01302588	     -0.00550930	     -0.01255609	      0.02750381	     -0.03079231	     -0.02357470	      0.01456336	     -0.00738845	     -0.01563105	      0.03177459	     -0.03847972
      0.10000000	     -0.32392256	      0.13719831	     -0.13719831	      0.32392256	     -0.06558773	      0.53005695	      0.23825695	     -0.23825695	     -0.53005695	      0.06558773	     98.06488735	     76.69154488	     -1.71155516	    -20.87204060	     29.21003639	     39.42403265	      0.16417337	     -1.07021557	      0.20074534	     -0.53510779	      9.93684084	     -0.24943096	    -29.64813152	    -31.59239506	     64.85718319	     13.80973736	     84.93734289	     93.35365683	     75.82604752	      5.71889886	     83.75249350	     61.21439547	     84.22977515	    -12.26387418	     88.29482817	     44.48986334	     95.75032903	    -14.15141962	     76.83790326	      5.70265888	      0.00086618	     -0.03094792	     -0.00483926	      0.01657296	     -0.01813505	     -0.00753129	      0.00463701	     -0.06678359	     -0.00322582	      0.00772230	     -0.18350700	     -0.00038221	     -0.00473087	      0.00135686	      0.00015047	      0.00013580	      0.00005432	      0.00027159	      0.00017382	      0.00052146	      0.00029332	      0.00003277	     -0.00019357	     -0.00023228	      0.00251378	      0.00881954	      0.00613533	     -0.00822304	      0.01985461	     -0.01883205	      0.00251378	      0.00881954	      0.00613533	      0.00055388	      0.01840599	     -0.00967166	      0.00396775	      0.00490443	      0.01601586	      0.00000000	      0.00786659	      0.00000000	     -0.00720049	     -0.03327564	     -0.00648685	      0.01427439	     -0.00045887	     -0.00360687	     -0.00089474	      0.01499747	     -0.00613533	      0.00247117	      0.02164408	     -0.01789471	     -0.00600751	      0.01299497	     -0.00549623	     -0.01252630	      0.02743855	     -0.03071925	     -0.02351876	      0.01452880	     -0.00737092	     -0.01559396	      0.03169920	     -0.03838841
